<svg xmlns="http://www.w3.org/2000/svg" width="74.287" height="74.288" viewBox="0 0 74.287 74.288">
  <path id="facebook" d="M64.279,0H10.012A10.01,10.01,0,0,0,0,10.01V64.277a10.01,10.01,0,0,0,10.01,10.01H36.776l.046-26.546h-6.9A1.627,1.627,0,0,1,28.3,46.12l-.033-8.557a1.627,1.627,0,0,1,1.627-1.634h6.884V27.661c0-9.6,5.86-14.82,14.42-14.82H58.22a1.627,1.627,0,0,1,1.627,1.627v7.215a1.627,1.627,0,0,1-1.626,1.627l-4.31,0c-4.655,0-5.556,2.212-5.556,5.458V35.93H58.583A1.627,1.627,0,0,1,60.2,37.749l-1.014,8.557a1.627,1.627,0,0,1-1.616,1.436H48.4l-.046,26.546H64.279a10.01,10.01,0,0,0,10.01-10.01V10.01A10.011,10.011,0,0,0,64.279,0Z" transform="translate(-0.002)" fill="#f26178"/>
</svg>
