<svg xmlns="http://www.w3.org/2000/svg" width="81.383" height="81.398" viewBox="0 0 81.383 81.398">
  <g id="instagram" transform="translate(-0.449)">
    <path id="Path_84" data-name="Path 84" d="M81.625,23.932a29.744,29.744,0,0,0-1.892-9.875,20.851,20.851,0,0,0-11.91-11.91A29.82,29.82,0,0,0,57.948.255C53.591.048,52.207,0,41.156,0S28.721.048,24.38.239a29.752,29.752,0,0,0-9.874,1.892,19.861,19.861,0,0,0-7.22,4.707,20.041,20.041,0,0,0-4.691,7.2A29.823,29.823,0,0,0,.7,23.915C.5,28.273.449,29.656.449,40.708S.5,53.142.687,57.483A29.742,29.742,0,0,0,2.58,67.358a20.848,20.848,0,0,0,11.91,11.91,29.824,29.824,0,0,0,9.875,1.892c4.341.191,5.724.239,16.776.239s12.435-.047,16.776-.239a29.736,29.736,0,0,0,9.874-1.892A20.82,20.82,0,0,0,79.7,67.358a29.843,29.843,0,0,0,1.892-9.875c.191-4.341.239-5.724.239-16.776s-.016-12.435-.207-16.776Zm-7.33,33.234a22.311,22.311,0,0,1-1.4,7.553,13.5,13.5,0,0,1-7.728,7.728,22.39,22.39,0,0,1-7.553,1.4c-4.293.191-5.581.239-16.442.239s-12.165-.047-16.442-.239a22.3,22.3,0,0,1-7.553-1.4A12.525,12.525,0,0,1,12.5,69.409a12.655,12.655,0,0,1-3.037-4.675,22.394,22.394,0,0,1-1.4-7.553c-.191-4.293-.239-5.582-.239-16.442s.047-12.165.239-16.442a22.3,22.3,0,0,1,1.4-7.553,12.372,12.372,0,0,1,3.054-4.675,12.636,12.636,0,0,1,4.675-3.037,22.405,22.405,0,0,1,7.553-1.4c4.293-.191,5.582-.239,16.442-.239,10.877,0,12.165.048,16.442.239a22.311,22.311,0,0,1,7.553,1.4,12.516,12.516,0,0,1,4.675,3.037A12.653,12.653,0,0,1,72.9,16.744a22.4,22.4,0,0,1,1.4,7.553c.191,4.293.239,5.581.239,16.442s-.048,12.133-.239,16.426Zm0,0" transform="translate(0 0)" fill="#f26178"/>
    <path id="Path_85" data-name="Path 85" d="M145.859,124.5a20.91,20.91,0,1,0,20.91,20.91A20.916,20.916,0,0,0,145.859,124.5Zm0,34.474a13.564,13.564,0,1,1,13.564-13.564A13.566,13.566,0,0,1,145.859,158.974Zm0,0" transform="translate(-104.703 -104.703)" fill="#f26178"/>
    <path id="Path_86" data-name="Path 86" d="M372.214,93.483a4.882,4.882,0,1,1-4.882-4.882A4.882,4.882,0,0,1,372.214,93.483Zm0,0" transform="translate(-304.438 -74.513)" fill="#f26178"/>
  </g>
</svg>
