<svg xmlns="http://www.w3.org/2000/svg" width="204.299" height="199.5" viewBox="0 0 204.299 199.5">
  <g id="Logo" transform="translate(-18 -10.012)">
    <g id="Layer_1" data-name="Layer 1" transform="translate(18 10.012)">
      <path id="Path_1" data-name="Path 1" d="M1642.951,1188.859H1629.47v-4.4h13.481Z" transform="translate(-1439.087 -1046.071)" fill="#fff"/>
      <path id="Path_2" data-name="Path 2" d="M1632.921,1276.576c-3.356-1.072-3.9-1.416-3.9-2.36s1.388-1.218,2.554-1.218a7.271,7.271,0,0,1,4.13,1.341l.472.321,1.6-3.347.1-.425-.345-.231a9.847,9.847,0,0,0-6.075-1.761c-4.328,0-7.123,2.181-7.123,5.556,0,3.691,2.879,4.98,5.584,5.9,3.229,1.067,3.748,1.624,3.748,2.549s-.944,1.454-2.832,1.454a7.348,7.348,0,0,1-4.7-1.732l-.472-.363-1.888,3.88.326.236a10.629,10.629,0,0,0,6.9,2.157c4.47,0,7.359-2.332,7.359-5.947C1638.406,1278.823,1635.475,1277.4,1632.921,1276.576Z" transform="translate(-1434.056 -1120.643)" fill="#fff"/>
      <path id="Path_3" data-name="Path 3" d="M569.216,28.951,542.471,1.035A3.3,3.3,0,0,0,537.727,1L510.236,28.8a59.65,59.65,0,0,0-17.352,42.18,41.114,41.114,0,0,0,41.066,41.066h10.857a41.114,41.114,0,0,0,41.067-41.066v-.519a59.778,59.778,0,0,0-16.658-41.515Zm10.049,42.034a34.458,34.458,0,0,1-34.458,34.43h-1.416V89.068a39.683,39.683,0,0,1,19.056-13.406,3.316,3.316,0,0,0-1.935-6.344,44.781,44.781,0,0,0-17.12,9.993V67.695a52.761,52.761,0,0,1,12.339-8.671,3.318,3.318,0,0,0-2.875-5.981,53.617,53.617,0,0,0-9.464,5.971V40.605a3.3,3.3,0,0,0-6.608,0V58.5a38.927,38.927,0,0,0-9.691-5.551,3.316,3.316,0,1,0-2.421,6.174,32.9,32.9,0,0,1,12.112,8.393V79.278a48.524,48.524,0,0,0-16.87-9.913,3.317,3.317,0,0,0-2.119,6.287,42.482,42.482,0,0,1,18.99,13.231v16.521h-2.832a34.458,34.458,0,0,1-34.43-34.43,53.065,53.065,0,0,1,15.416-37.526l25.1-25.362,24.38,25.438a53.136,53.136,0,0,1,14.845,36.941Z" transform="translate(-435.297 -0.012)" fill="#f26178"/>
      <path id="Path_4" data-name="Path 4" d="M6.056,1208.6H20.217v5.287H0v-29.426H6.056Z" transform="translate(0 -1046.071)" fill="#fff"/>
      <path id="Path_5" data-name="Path 5" d="M345.336,1189.567H331.562v4.8h12.41v4.947h-12.41v9.318h14.114v5.244h-20.17v-29.412h19.825Z" transform="translate(-287.475 -1046.071)" fill="#fff"/>
      <path id="Path_6" data-name="Path 6" d="M687.225,1199.043l10.385,14.883H690.3l-6.826-10.191-6.523,10.191H670l10.319-15.138-9.913-14.288h7.269l6.353,9.6,6.184-9.6h6.948Z" transform="translate(-591.719 -1046.107)" fill="#fff"/>
      <path id="Path_7" data-name="Path 7" d="M1076.634,1213.885h-6.023v-29.426h6.014Z" transform="translate(-945.523 -1046.071)" fill="#fff"/>
      <path id="Path_8" data-name="Path 8" d="M1321.329,1189.567h-13.764v4.8h12.409v4.947h-12.409v9.318h14.118v5.244H1301.5v-29.412h19.825Z" transform="translate(-1149.435 -1046.071)" fill="#fff"/>
      <path id="Path_9" data-name="Path 9" d="M328.093,1608.347h6.047v2.256h-8.633v-12.565h2.587Z" transform="translate(-287.475 -1411.329)" fill="#fff"/>
      <path id="Path_10" data-name="Path 10" d="M447.5,1609.18c-3.776,0-6.245-2.36-6.245-6.5s2.53-6.5,6.264-6.5,6.25,2.36,6.25,6.5S451.232,1609.18,447.5,1609.18Zm0-10.743c-2.219,0-3.639,1.529-3.639,4.225s1.416,4.206,3.639,4.206,3.625-1.51,3.625-4.206-1.4-4.225-3.606-4.225Z" transform="translate(-389.698 -1409.688)" fill="#fff"/>
      <path id="Path_11" data-name="Path 11" d="M607.488,1609.18c-3.776,0-6.25-2.36-6.25-6.5s2.53-6.5,6.264-6.5,6.25,2.36,6.25,6.5S611.236,1609.18,607.488,1609.18Zm0-10.743c-2.219,0-3.639,1.529-3.639,4.225s1.416,4.206,3.639,4.206,3.625-1.51,3.625-4.206-1.407-4.225-3.611-4.225Z" transform="translate(-530.992 -1409.688)" fill="#fff"/>
      <path id="Path_12" data-name="Path 12" d="M767.374,1599.567a5.367,5.367,0,0,0-3.078-1c-1.345,0-2.11.4-2.11,1.18,0,.944.727,1.26,2.95,1.968s3.587,1.765,3.587,3.861c0,2.223-1.714,3.8-4.791,3.8a7.105,7.105,0,0,1-4.607-1.416l1-2.077a5.485,5.485,0,0,0,3.479,1.275c1.458,0,2.294-.439,2.294-1.35s-.689-1.383-2.832-2.091-3.658-1.624-3.658-3.776,1.836-3.531,4.626-3.531a6.608,6.608,0,0,1,4.1,1.2Z" transform="translate(-670.608 -1409.889)" fill="#fff"/>
      <path id="Path_13" data-name="Path 13" d="M904.751,1600.224H898.87l-.042,1.987h5.3v2.11h-5.3l.042,4.045H904.9v2.237h-8.615v-12.565h8.468Z" transform="translate(-791.564 -1411.329)" fill="#fff"/>
      <path id="Path_14" data-name="Path 14" d="M1109.728,1600.262h-4.409V1610.6h-2.568v-10.342h-4.385v-2.223h11.362Z" transform="translate(-970.036 -1411.329)" fill="#fff"/>
      <path id="Path_15" data-name="Path 15" d="M1256.2,1600.224h-5.886v1.987h5.3v2.11h-5.3v4.045h6.028v2.237h-8.615v-12.565h8.5Z" transform="translate(-1101.945 -1411.329)" fill="#fff"/>
      <path id="Path_16" data-name="Path 16" d="M1381.224,1610.5h-2.733l-1.2-3.384h-4.536l-1.161,3.37h-2.662l4.829-12.565h2.658Zm-6.174-9.941h-.038l-1.657,4.786h3.351Z" transform="translate(-1208.985 -1411.222)" fill="#fff"/>
    </g>
  </g>
</svg>
