<svg xmlns="http://www.w3.org/2000/svg" viewBox="0 0 433.04 521.79"><defs><style>.cls-1{fill:#f26178;}</style></defs><g id="Layer_2" data-name="Layer 2"><g id="Layer_1-2" data-name="Layer 1"><path class="cls-1" d="M355.39,134.78,230.85,4.76a15.44,15.44,0,0,0-22.14-.17l-128,129.46A277.81,277.81,0,0,0,0,330.54C0,436,85.79,521.79,191.25,521.79h50.54C347.24,521.79,433,436,433,330.54v-2.43A278.28,278.28,0,0,0,355.39,134.78Zm46.74,195.76c0,88.42-71.93,160.35-160.34,160.35h-6.65V414.76c8.13-10.68,38.81-47.2,88.76-62.44a15.45,15.45,0,1,0-9-29.55c-34.9,10.64-61.63,29.86-79.75,46.55V315.23c9-8.45,31.18-27.77,57.47-40.41A15.45,15.45,0,0,0,279.22,247a251.45,251.45,0,0,0-44.08,27.74V189.12a15.45,15.45,0,1,0-30.9,0v83.26a180.73,180.73,0,0,0-45.13-25.87,15.45,15.45,0,0,0-11.27,28.77,153,153,0,0,1,56.4,39.05v54.81a226.27,226.27,0,0,0-78.56-46.23,15.45,15.45,0,1,0-9.88,29.27c49.34,16.65,79.3,50.25,88.44,61.72v77h-13C102.83,490.89,30.9,419,30.9,330.54a247.08,247.08,0,0,1,71.8-174.76L219.52,37.6,333.07,156.16a247.47,247.47,0,0,1,69.06,172Z"/></g></g></svg>