<svg xmlns="http://www.w3.org/2000/svg" width="326.829" height="93.581" viewBox="0 0 326.829 93.581">
  <g id="Layer_2" data-name="Layer 2" transform="translate(0 -0.02)">
    <g id="Layer_1" data-name="Layer 1" transform="translate(0 0.02)">
      <path id="Path_87" data-name="Path 87" d="M340.561,30.846H330.25V27.48h10.311Z" transform="translate(-80.977 -6.753)" fill="#fff"/>
      <path id="Path_88" data-name="Path 88" d="M336.582,43.345c-2.559-.815-2.981-1.072-2.981-1.8s1.064-.936,1.955-.936a5.555,5.555,0,0,1,3.155,1.042l.37.242,1.223-2.551.075-.332-.264-.174a7.548,7.548,0,0,0-4.642-1.344c-3.306,0-5.442,1.668-5.442,4.242,0,2.823,2.2,3.774,4.265,4.529,2.468.815,2.868,1.245,2.868,1.955s-.755,1.11-2.151,1.11a5.653,5.653,0,0,1-3.593-1.359l-.355-.279-1.434,2.966.249.174a8.144,8.144,0,0,0,5.284,1.653c3.412,0,5.623-1.781,5.623-4.529S338.537,43.971,336.582,43.345Z" transform="translate(-80.825 -9.205)" fill="#fff"/>
      <path id="Path_89" data-name="Path 89" d="M63.758,24.158,41.416.858a2.77,2.77,0,0,0-3.97,0l-22.961,23.2A49.87,49.87,0,0,0,0,59.31,34.351,34.351,0,0,0,34.313,93.6h9.058A34.351,34.351,0,0,0,77.684,59.295v-.415A49.915,49.915,0,0,0,63.758,24.158ZM72.144,59.31A28.8,28.8,0,0,1,43.378,88.075H42.186V74.421A33.211,33.211,0,0,1,58.12,63.212,2.77,2.77,0,0,0,56.5,57.928a37.491,37.491,0,0,0-14.341,8.348V56.562a44.352,44.352,0,0,1,10.311-7.254,2.772,2.772,0,1,0-2.4-5,45.016,45.016,0,0,0-7.91,4.982V33.971a2.77,2.77,0,0,0-5.54,0v14.9a32.509,32.509,0,0,0-8.1-4.642A2.773,2.773,0,0,0,26.5,49.392a27.565,27.565,0,0,1,10.122,7v9.812a40.631,40.631,0,0,0-14.1-8.3,2.787,2.787,0,1,0-1.774,5.284A35.528,35.528,0,0,1,36.6,74.262V88.075H34.313A28.8,28.8,0,0,1,5.54,59.31,44.345,44.345,0,0,1,18.425,27.932L39.386,6.753l20.38,21.27A44.413,44.413,0,0,1,72.144,58.879Z" transform="translate(0 -0.02)" fill="#f26178"/>
      <path id="Path_90" data-name="Path 90" d="M142.067,45.935h10.824v4.038H137.44V27.48h4.627Z" transform="translate(-33.7 -6.753)" fill="#fff"/>
      <path id="Path_91" data-name="Path 91" d="M191.1,31.4H180.6v3.668h9.48V38.84H180.6v7.148h10.786V50H176V27.48h15.1Z" transform="translate(-43.155 -6.753)" fill="#fff"/>
      <path id="Path_92" data-name="Path 92" d="M229.894,38.61l7.925,11.375h-5.578l-5.216-7.759-4.982,7.79H216.76l7.857-11.564L217.069,27.53h5.54l4.853,7.337L232.2,27.53h5.284Z" transform="translate(-53.149 -6.765)" fill="#fff"/>
      <path id="Path_93" data-name="Path 93" d="M268.727,49.973h-4.6V27.48h4.6Z" transform="translate(-64.764 -6.753)" fill="#fff"/>
      <path id="Path_94" data-name="Path 94" d="M306.606,31.4h-10.53v3.668h9.488V38.84h-9.488v7.148h10.786V50H291.45V27.48h15.156Z" transform="translate(-71.463 -6.753)" fill="#fff"/>
      <path id="Path_95" data-name="Path 95" d="M141.946,92.169h10.567v3.94H137.44V74.22h4.529Z" transform="translate(-33.7 -18.213)" fill="#fff"/>
      <path id="Path_96" data-name="Path 96" d="M179.544,96.354c-6.567,0-10.884-4.091-10.884-11.322s4.408-11.322,10.914-11.322,10.892,4.091,10.892,11.322S186.051,96.354,179.544,96.354Zm0-18.727c-3.872,0-6.34,2.664-6.34,7.367s2.468,7.329,6.34,7.329,6.318-2.634,6.318-7.329-2.446-7.367-6.288-7.367Z" transform="translate(-41.355 -18.088)" fill="#fff"/>
      <path id="Path_97" data-name="Path 97" d="M222.7,96.354c-6.567,0-10.884-4.091-10.884-11.322s4.408-11.322,10.922-11.322,10.884,4.091,10.884,11.322S229.211,96.354,222.7,96.354Zm0-18.727c-3.88,0-6.348,2.664-6.348,7.367s2.468,7.329,6.348,7.329,6.31-2.634,6.31-7.329-2.438-7.367-6.272-7.367Z" transform="translate(-51.938 -18.088)" fill="#fff"/>
      <path id="Path_98" data-name="Path 98" d="M268.5,79.241a9.344,9.344,0,0,0-5.359-1.751c-2.355,0-3.683.7-3.683,2.068,0,1.683,1.268,2.189,5.14,3.427s6.25,3.08,6.25,6.725c0,3.872-2.981,6.635-8.348,6.635a12.34,12.34,0,0,1-8.024-2.506l1.744-3.616a9.571,9.571,0,0,0,6.038,2.219c2.536,0,4-.755,4-2.347s-1.208-2.415-4.952-3.653-6.378-2.823-6.378-6.6,3.2-6.152,8.061-6.152a11.465,11.465,0,0,1,7.14,2.091Z" transform="translate(-62.398 -18.08)" fill="#fff"/>
      <path id="Path_99" data-name="Path 99" d="M306.476,78h-10.25v3.721h9.231v3.646h-9.231v6.793h10.5v3.9H291.72V74.17h14.756Z" transform="translate(-71.529 -18.201)" fill="#fff"/>
      <path id="Path_100" data-name="Path 100" d="M351.456,78.062H343.78V96.094H339.3V78.062H331.65V74.19h19.806Z" transform="translate(-81.32 -18.206)" fill="#fff"/>
      <path id="Path_101" data-name="Path 101" d="M386.726,78h-10.25v3.774h9.239v3.668h-9.239v6.718h10.507v3.9H372V74.17h14.756Z" transform="translate(-91.214 -18.201)" fill="#fff"/>
      <path id="Path_102" data-name="Path 102" d="M426.049,96.1h-4.763l-2.03-5.872h-7.941l-2.03,5.872H404.65l8.416-21.889h4.627Zm-10.763-17.36h-.06l-2.891,8.348h5.842Z" transform="translate(-99.219 -18.211)" fill="#fff"/>
    </g>
  </g>
</svg>
