<?xml version="1.0" standalone="no"?>
<!DOCTYPE svg PUBLIC "-//W3C//DTD SVG 20010904//EN"
 "http://www.w3.org/TR/2001/REC-SVG-20010904/DTD/svg10.dtd">
<svg version="1.0" xmlns="http://www.w3.org/2000/svg"
 width="1044.000000pt" height="1044.000000pt" viewBox="0 0 1044.000000 1044.000000"
 preserveAspectRatio="xMidYMid meet">
<metadata>
Created by potrace 1.11, written by Peter Selinger 2001-2013
</metadata>
<g transform="translate(0.000000,1044.000000) scale(0.100000,-0.100000)"
fill="#000000" stroke="none">
<path d="M5170 10418 c-61 -23 -50 -12 -1337 -1314 -1309 -1325 -1493 -1512
-1493 -1519 0 -3 -12 -18 -28 -33 -45 -46 -108 -118 -154 -177 -23 -30 -46
-55 -50 -55 -5 0 -8 -6 -8 -14 0 -8 -3 -16 -8 -18 -4 -1 -26 -28 -49 -58 -24
-30 -47 -60 -51 -65 -5 -6 -17 -24 -28 -40 -10 -17 -23 -35 -29 -42 -41 -49
-155 -220 -155 -232 0 -6 -4 -11 -10 -11 -5 0 -10 -6 -10 -14 0 -8 -4 -16 -8
-18 -8 -3 -115 -180 -174 -288 -37 -67 -151 -291 -153 -300 -1 -3 -16 -36 -34
-75 -18 -38 -39 -86 -47 -105 -9 -19 -19 -44 -24 -55 -10 -23 -60 -148 -85
-214 -9 -25 -25 -72 -36 -105 -11 -34 -24 -70 -28 -81 -17 -43 -90 -291 -117
-400 -4 -16 -8 -32 -9 -35 -6 -22 -18 -97 -17 -102 1 -5 -3 -8 -9 -8 -5 0 -8
-3 -6 -7 3 -5 -4 -48 -15 -98 -10 -49 -21 -106 -24 -125 -8 -66 -14 -102 -18
-109 -2 -3 -7 -35 -10 -71 -4 -36 -9 -74 -11 -85 -7 -30 -17 -134 -31 -315
-11 -143 -11 -616 0 -730 13 -134 31 -279 42 -325 5 -23 17 -92 19 -110 1 -11
5 -27 8 -35 3 -8 13 -49 22 -90 9 -41 30 -120 46 -175 17 -55 32 -107 34 -115
7 -32 85 -239 120 -320 40 -94 160 -336 193 -390 12 -19 25 -42 28 -50 9 -20
195 -303 204 -310 3 -3 17 -21 30 -40 13 -19 29 -40 35 -46 5 -6 21 -26 35
-45 14 -18 35 -44 48 -57 12 -12 22 -25 22 -27 0 -13 390 -415 403 -415 3 0
18 -13 35 -28 16 -16 81 -68 144 -116 62 -48 120 -93 130 -101 9 -7 19 -11 22
-8 3 4 6 2 6 -3 0 -5 30 -29 68 -53 140 -90 167 -108 182 -114 8 -4 47 -25 85
-47 112 -64 323 -165 440 -209 33 -13 74 -29 90 -36 36 -15 97 -35 108 -35 4
0 24 -7 45 -16 20 -8 44 -17 52 -19 23 -5 133 -36 150 -42 8 -3 24 -7 35 -8
11 -2 47 -10 80 -19 33 -8 71 -17 85 -19 35 -7 139 -25 175 -32 59 -10 160
-22 275 -32 112 -10 1531 -10 1635 0 44 4 103 9 130 12 28 2 50 4 50 5 0 1 11
3 25 5 14 2 43 6 65 10 22 3 54 8 70 11 17 3 37 7 45 9 8 2 33 7 55 10 40 7
66 12 75 15 3 1 10 3 15 4 6 1 24 5 40 9 17 4 39 9 50 12 91 19 439 133 492
160 15 8 31 15 36 15 4 0 30 11 59 25 28 14 58 25 65 25 7 0 13 5 13 12 0 6 3
9 6 6 5 -6 186 84 212 104 6 6 12 7 12 2 0 -5 4 -4 8 1 4 6 16 15 27 21 84 46
140 78 149 85 18 15 87 59 92 59 5 0 56 37 194 139 82 62 89 67 199 160 116
99 323 308 441 446 34 40 168 218 211 280 19 28 36 52 39 55 3 3 11 17 19 32
8 16 18 28 23 28 4 0 8 4 8 9 0 5 24 49 53 98 28 49 59 102 69 119 22 40 138
274 138 279 0 3 14 34 30 70 17 36 30 70 30 75 0 6 5 18 10 28 11 19 70 178
75 203 2 9 10 37 19 62 14 41 61 217 71 263 2 11 8 39 13 64 6 25 13 63 16 85
4 23 9 52 11 65 17 86 30 187 42 330 15 175 7 724 -12 885 -2 17 -6 57 -9 90
-7 73 -18 153 -30 220 -2 17 -7 48 -11 70 -3 23 -7 50 -9 60 -2 11 -12 61 -21
110 -20 107 -23 120 -25 120 -1 0 -3 9 -5 20 -5 37 -15 80 -25 115 -6 19 -13
46 -16 60 -3 14 -10 41 -16 60 -7 19 -11 39 -10 44 2 4 -3 14 -9 22 -6 8 -9
14 -6 14 4 0 -1 19 -9 43 -9 23 -17 49 -18 57 -1 8 -5 22 -8 30 -12 29 -51
155 -49 158 1 1 -6 16 -14 32 -8 16 -15 31 -15 32 3 7 -89 243 -131 341 -43
101 -176 371 -210 429 -16 26 -26 48 -22 48 3 0 -1 8 -9 18 -8 9 -39 60 -68
112 -30 52 -57 97 -62 98 -4 2 -8 10 -8 18 0 8 -4 14 -10 14 -5 0 -10 5 -10
10 0 9 -86 146 -100 160 -3 3 -9 12 -15 21 -19 32 -89 134 -95 139 -3 3 -28
34 -54 70 -27 36 -53 67 -58 68 -4 2 -8 9 -8 16 0 6 -8 19 -17 28 -10 8 -29
30 -43 49 -14 18 -29 37 -35 43 -5 6 -35 40 -65 76 -92 109 -97 113 -640 680
-141 148 -402 421 -449 470 -47 49 -249 260 -451 470 -41 43 -138 144 -215
225 -77 81 -169 177 -205 215 -36 37 -114 118 -174 181 -606 635 -592 621
-650 648 -67 33 -171 37 -246 9z m167 -789 c26 -28 86 -90 131 -138 46 -47
144 -149 217 -226 74 -77 171 -179 217 -227 46 -47 139 -145 208 -217 69 -73
179 -188 246 -256 66 -69 120 -125 119 -125 -1 0 60 -64 134 -141 197 -205
231 -240 417 -436 93 -97 207 -216 254 -264 97 -100 326 -341 361 -380 96
-106 172 -196 231 -274 4 -5 20 -26 36 -45 15 -19 39 -51 52 -70 14 -19 32
-44 42 -54 10 -11 18 -24 18 -28 0 -5 11 -21 25 -36 14 -15 25 -30 25 -35 0
-4 9 -17 20 -29 11 -12 20 -28 20 -35 0 -7 5 -13 10 -13 6 0 10 -7 10 -15 0
-8 4 -15 9 -15 5 0 11 -8 15 -17 5 -18 26 -53 36 -63 11 -11 70 -112 70 -120
0 -5 6 -15 13 -22 43 -48 218 -413 332 -693 17 -40 97 -276 96 -282 0 -2 7
-22 15 -45 12 -35 46 -156 70 -250 2 -10 7 -28 10 -40 3 -13 7 -33 9 -45 2
-11 6 -30 9 -41 4 -11 9 -31 12 -44 2 -13 6 -34 9 -48 3 -14 8 -41 11 -60 3
-19 7 -45 10 -57 14 -74 21 -120 29 -188 4 -27 8 -61 11 -75 5 -29 18 -175 19
-207 0 -13 4 -23 9 -23 5 0 3 -6 -3 -13 -6 -8 -8 -16 -5 -20 18 -18 18 -543 0
-712 -14 -124 -24 -195 -43 -280 -8 -38 -16 -79 -17 -90 -5 -34 -46 -187 -73
-270 -14 -44 -26 -84 -28 -90 -1 -5 -7 -23 -13 -38 -7 -16 -12 -30 -12 -32 0
-19 -131 -307 -143 -316 -5 -3 -8 -9 -8 -13 2 -9 -24 -58 -83 -159 -28 -48
-55 -95 -61 -105 -36 -61 -171 -245 -240 -327 -27 -33 -59 -71 -70 -84 -40
-49 -232 -238 -305 -300 -41 -36 -76 -68 -78 -73 -2 -4 -9 -8 -16 -8 -6 0 -19
-8 -28 -17 -21 -23 -37 -35 -73 -59 -17 -10 -39 -27 -49 -36 -11 -10 -23 -18
-27 -18 -4 0 -14 -6 -21 -13 -15 -15 -176 -117 -184 -117 -3 0 -18 -8 -32 -19
-87 -60 -487 -239 -574 -256 -9 -2 -25 -8 -36 -14 -10 -5 -30 -12 -43 -15 -13
-3 -58 -15 -99 -26 -111 -31 -221 -55 -302 -65 -22 -3 -44 -7 -48 -10 -5 -3
-35 -7 -68 -9 -33 -2 -64 -6 -69 -8 -4 -3 -33 -6 -63 -7 -30 -2 -71 -4 -90 -6
-19 -2 -100 -4 -180 -5 l-145 -2 -1 764 -1 765 31 36 c17 19 38 45 46 56 62
81 268 293 381 393 35 31 78 68 94 83 44 39 292 225 299 225 4 0 16 8 27 18
10 11 32 25 47 33 15 8 29 16 32 20 7 8 160 99 166 99 3 0 19 9 35 21 16 11
29 17 29 12 0 -4 4 -3 8 3 6 10 212 113 237 119 6 1 31 11 57 23 25 11 70 29
100 39 29 10 56 23 60 28 4 6 8 7 8 4 0 -10 169 48 199 67 93 62 147 166 144
278 -2 45 -24 126 -35 126 -3 0 -9 8 -12 18 -10 27 -57 76 -103 105 -24 15
-43 24 -43 21 0 -4 -7 -1 -16 6 -9 8 -44 13 -92 14 -65 0 -97 -7 -202 -43 -69
-23 -134 -46 -145 -51 -11 -5 -44 -19 -74 -30 -110 -42 -374 -170 -466 -226
-31 -18 -64 -36 -75 -39 -11 -4 -20 -10 -20 -14 0 -4 -11 -13 -23 -18 -84 -39
-452 -304 -549 -396 -10 -9 -20 -17 -22 -17 -3 0 -28 -22 -58 -50 -29 -27 -56
-50 -59 -50 -8 0 -8 1065 0 1077 3 4 44 42 91 83 47 41 87 77 90 80 3 3 28 23
55 45 28 21 52 42 55 45 3 3 34 28 70 55 36 28 67 52 70 56 3 3 28 21 55 40
28 18 52 36 55 39 16 16 100 70 109 70 6 0 11 4 11 9 0 9 96 71 111 71 5 0 9
3 9 8 0 4 17 16 38 27 20 10 48 27 62 36 27 17 113 64 230 125 83 43 143 99
162 151 7 18 15 33 18 33 7 0 10 28 11 112 3 191 -169 328 -371 295 -23 -4
-138 -55 -150 -67 -3 -3 -23 -14 -45 -25 -70 -35 -277 -156 -369 -217 -49 -32
-93 -58 -97 -58 -5 0 -9 -4 -9 -8 0 -5 -10 -14 -22 -19 -13 -6 -32 -18 -43
-27 -46 -37 -195 -146 -199 -146 -2 0 -4 390 -5 868 0 477 -2 880 -4 895 -5
33 -37 107 -54 125 -7 7 -18 21 -25 30 -14 19 -81 64 -113 76 -37 14 -69 19
-128 18 -98 -1 -208 -69 -253 -157 -40 -76 -40 -85 -39 -962 0 -565 -3 -849
-10 -845 -11 7 -14 9 -60 45 -29 23 -225 156 -276 187 -88 54 -351 195 -371
199 -5 1 -37 15 -73 31 -192 88 -297 88 -413 1 -124 -92 -154 -292 -63 -418
46 -64 79 -85 231 -150 78 -34 190 -90 268 -135 46 -26 88 -48 93 -48 5 0 9
-4 9 -10 0 -5 4 -10 9 -10 28 0 323 -217 434 -320 48 -43 152 -146 192 -189
l30 -32 0 -544 c0 -300 -2 -545 -5 -545 -3 0 -23 17 -46 38 -43 39 -77 68
-189 157 -87 69 -83 66 -125 95 -19 13 -37 27 -40 30 -8 10 -228 153 -285 185
-27 16 -57 34 -65 41 -8 6 -42 26 -74 43 -33 17 -65 36 -73 42 -7 6 -13 8 -13
4 0 -4 -6 -2 -14 4 -14 12 -215 113 -231 117 -5 1 -56 23 -112 47 -57 25 -138
58 -180 73 -43 15 -89 32 -103 37 -43 17 -63 20 -130 20 -159 0 -286 -121
-298 -284 -2 -37 -1 -76 3 -86 5 -10 9 -22 11 -28 8 -32 37 -84 61 -110 44
-48 81 -70 173 -103 47 -16 99 -35 115 -42 17 -7 39 -16 50 -20 11 -5 41 -17
67 -29 26 -12 52 -21 58 -21 5 0 10 -5 10 -12 0 -6 3 -8 6 -5 7 7 234 -105
333 -165 34 -21 65 -38 67 -38 3 0 17 -8 32 -19 15 -10 77 -51 137 -91 61 -40
112 -76 115 -80 3 -3 21 -17 40 -30 38 -26 164 -126 190 -150 9 -8 45 -40 81
-70 112 -97 321 -311 399 -410 l35 -44 0 -764 c0 -420 -4 -766 -8 -769 -19
-12 -466 -2 -587 12 -19 3 -54 7 -77 9 -36 4 -104 15 -183 30 -84 16 -136 27
-206 46 -43 12 -92 25 -109 30 -30 8 -117 36 -145 47 -8 3 -19 7 -25 9 -92 23
-459 196 -517 243 -10 8 -18 11 -18 8 0 -6 -244 152 -270 175 -8 7 -32 26 -55
42 -22 16 -42 32 -45 36 -3 3 -14 13 -26 21 -64 44 -306 273 -389 369 -159
183 -280 353 -394 555 -54 95 -131 247 -131 258 0 2 -12 31 -27 63 -15 33 -28
62 -29 67 -1 4 -3 9 -4 12 -1 3 -3 8 -5 13 -1 4 -7 21 -14 37 -7 17 -14 37
-17 45 -2 8 -13 42 -24 75 -12 33 -23 67 -25 75 -46 169 -65 241 -63 247 0 5
-1 15 -5 23 -5 14 -18 78 -22 110 -1 8 -5 31 -8 50 -13 68 -24 174 -32 290 -5
65 -5 415 0 480 8 131 16 227 20 255 2 17 7 55 10 86 3 31 8 67 10 80 3 13 8
47 11 74 7 53 12 80 14 80 1 0 3 14 5 30 3 24 14 81 20 105 0 3 4 23 9 45 4
22 23 103 42 180 20 77 37 147 39 155 2 8 4 15 5 15 1 0 3 7 5 15 3 20 63 206
78 245 6 17 12 35 13 40 3 13 77 201 104 262 12 26 25 57 29 68 5 11 38 81 73
155 36 74 66 140 67 145 1 6 8 17 15 25 6 8 18 29 26 45 8 17 17 32 20 35 3 3
11 16 17 30 7 14 24 43 38 65 14 22 32 55 42 73 9 17 21 32 25 32 5 0 7 4 3 9
-3 5 1 15 8 23 7 7 43 59 80 116 72 108 212 300 231 317 6 6 23 26 37 45 28
36 41 52 111 135 93 108 141 157 1078 1105 300 303 654 663 788 798 476 483
686 692 693 692 5 0 30 -23 56 -51z"/>
</g>
</svg>
